<?xml version="1.0" encoding="utf-8"?>
<svg version="1.1" xmlns:xlink="http://www.w3.org/1999/xlink" width="12px" height="12px" viewBox="580 491  12 12" xmlns="http://www.w3.org/2000/svg">
  <path d="M 586 491  C 589.36 491  592 493.64  592 497  C 592 500.36  589.36 503  586 503  C 582.64 503  580 500.36  580 497  C 580 493.64  582.64 491  586 491  Z " fill-rule="nonzero" fill="#f0f0f0" stroke="none" />
  <path d="M 586 491.5  C 589.08 491.5  591.5 493.92  591.5 497  C 591.5 500.08  589.08 502.5  586 502.5  C 582.92 502.5  580.5 500.08  580.5 497  C 580.5 493.92  582.92 491.5  586 491.5  Z " stroke-width="1" stroke="#797979" fill="none" />
  <path d="M 586 500  C 584.32 500  583 498.68  583 497  C 583 495.32  584.32 494  586 494  C 587.68 494  589 495.32  589 497  C 589 498.68  587.68 500  586 500  " fill-rule="nonzero" fill="#797979" stroke="none" />
</svg>