<?xml version="1.0" encoding="utf-8"?>
<svg version="1.1" xmlns:xlink="http://www.w3.org/1999/xlink" width="12px" height="12px" viewBox="1122 491  12 12" xmlns="http://www.w3.org/2000/svg">
  <path d="M 1128 491  C 1131.36 491  1134 493.64  1134 497  C 1134 500.36  1131.36 503  1128 503  C 1124.64 503  1122 500.36  1122 497  C 1122 493.64  1124.64 491  1128 491  Z " fill-rule="nonzero" fill="#f0f0f0" stroke="none" />
  <path d="M 1128 491.5  C 1131.08 491.5  1133.5 493.92  1133.5 497  C 1133.5 500.08  1131.08 502.5  1128 502.5  C 1124.92 502.5  1122.5 500.08  1122.5 497  C 1122.5 493.92  1124.92 491.5  1128 491.5  Z " stroke-width="1" stroke="#797979" fill="none" />
  <path d="M 1128 500  C 1126.32 500  1125 498.68  1125 497  C 1125 495.32  1126.32 494  1128 494  C 1129.68 494  1131 495.32  1131 497  C 1131 498.68  1129.68 500  1128 500  " fill-rule="nonzero" fill="#797979" stroke="none" />
</svg>