<?xml version="1.0" encoding="utf-8"?>
<svg version="1.1" xmlns:xlink="http://www.w3.org/1999/xlink" width="12px" height="12px" viewBox="532 970  12 12" xmlns="http://www.w3.org/2000/svg">
  <path d="M 538 970  C 541.36 970  544 972.64  544 976  C 544 979.36  541.36 982  538 982  C 534.64 982  532 979.36  532 976  C 532 972.64  534.64 970  538 970  Z " fill-rule="nonzero" fill="#f0f0f0" stroke="none" />
  <path d="M 538 970.5  C 541.08 970.5  543.5 972.92  543.5 976  C 543.5 979.08  541.08 981.5  538 981.5  C 534.92 981.5  532.5 979.08  532.5 976  C 532.5 972.92  534.92 970.5  538 970.5  Z " stroke-width="1" stroke="#797979" fill="none" />
  <path d="M 538 979  C 536.32 979  535 977.68  535 976  C 535 974.32  536.32 973  538 973  C 539.68 973  541 974.32  541 976  C 541 977.68  539.68 979  538 979  " fill-rule="nonzero" fill="#797979" stroke="none" />
</svg>