<?xml version="1.0" encoding="utf-8"?>
<svg version="1.1" xmlns:xlink="http://www.w3.org/1999/xlink" width="12px" height="12px" viewBox="795 970  12 12" xmlns="http://www.w3.org/2000/svg">
  <path d="M 801 970  C 804.36 970  807 972.64  807 976  C 807 979.36  804.36 982  801 982  C 797.64 982  795 979.36  795 976  C 795 972.64  797.64 970  801 970  Z " fill-rule="nonzero" fill="#ffffff" stroke="none" />
  <path d="M 801 970.5  C 804.08 970.5  806.5 972.92  806.5 976  C 806.5 979.08  804.08 981.5  801 981.5  C 797.92 981.5  795.5 979.08  795.5 976  C 795.5 972.92  797.92 970.5  801 970.5  Z " stroke-width="1" stroke="#797979" fill="none" />
  <path d="M 801 979  C 799.32 979  798 977.68  798 976  C 798 974.32  799.32 973  801 973  C 802.68 973  804 974.32  804 976  C 804 977.68  802.68 979  801 979  " fill-rule="nonzero" fill="#797979" stroke="none" />
</svg>