<?xml version="1.0" encoding="utf-8"?>
<svg version="1.1" xmlns:xlink="http://www.w3.org/1999/xlink" width="12px" height="12px" viewBox="1067 970  12 12" xmlns="http://www.w3.org/2000/svg">
  <path d="M 1073 970  C 1076.36 970  1079 972.64  1079 976  C 1079 979.36  1076.36 982  1073 982  C 1069.64 982  1067 979.36  1067 976  C 1067 972.64  1069.64 970  1073 970  Z " fill-rule="nonzero" fill="#ffffff" stroke="none" />
  <path d="M 1073 970.5  C 1076.08 970.5  1078.5 972.92  1078.5 976  C 1078.5 979.08  1076.08 981.5  1073 981.5  C 1069.92 981.5  1067.5 979.08  1067.5 976  C 1067.5 972.92  1069.92 970.5  1073 970.5  Z " stroke-width="1" stroke="#797979" fill="none" />
  <path d="M 1073 979  C 1071.32 979  1070 977.68  1070 976  C 1070 974.32  1071.32 973  1073 973  C 1074.68 973  1076 974.32  1076 976  C 1076 977.68  1074.68 979  1073 979  " fill-rule="nonzero" fill="#797979" stroke="none" />
</svg>