<?xml version="1.0" encoding="utf-8"?>
<svg version="1.1" xmlns:xlink="http://www.w3.org/1999/xlink" width="12px" height="12px" viewBox="1337 970  12 12" xmlns="http://www.w3.org/2000/svg">
  <path d="M 1343 970  C 1346.36 970  1349 972.64  1349 976  C 1349 979.36  1346.36 982  1343 982  C 1339.64 982  1337 979.36  1337 976  C 1337 972.64  1339.64 970  1343 970  Z " fill-rule="nonzero" fill="#f0f0f0" stroke="none" />
  <path d="M 1343 970.5  C 1346.08 970.5  1348.5 972.92  1348.5 976  C 1348.5 979.08  1346.08 981.5  1343 981.5  C 1339.92 981.5  1337.5 979.08  1337.5 976  C 1337.5 972.92  1339.92 970.5  1343 970.5  Z " stroke-width="1" stroke="#797979" fill="none" />
  <path d="M 1343 979  C 1341.32 979  1340 977.68  1340 976  C 1340 974.32  1341.32 973  1343 973  C 1344.68 973  1346 974.32  1346 976  C 1346 977.68  1344.68 979  1343 979  " fill-rule="nonzero" fill="#797979" stroke="none" />
</svg>