<?xml version="1.0" encoding="utf-8"?>
<svg version="1.1" xmlns:xlink="http://www.w3.org/1999/xlink" width="20px" height="19px" xmlns="http://www.w3.org/2000/svg">
  <g transform="matrix(1 0 0 1 -1234 -927 )">
    <path d="M 13.6658653846154 11.6370510396975  L 14.2548076923077 11.0743541272842  L 17.34375 8.0812854442344  L 13.0649038461538 7.45872715816005  L 12.2716346153846 7.33900441083806  L 11.9110576923077 6.62066792690611  L 10 2.765595463138  L 10 14.2948960302457  L 10.7091346153846 14.6660365469439  L 14.53125 16.6773787019534  L 13.8100961538462 12.4272211720227  L 13.6658653846154 11.6370510396975  Z M 19.9759615384615 7.22526780088217  C 20.0480769230769 7.44475950430582  19.9519230769231 7.68220961982777  19.6875 7.93761814744802  L 15.3245192307692 12.1758034026465  L 16.3581730769231 18.1619407687461  C 16.3982371794872 18.4253308128544  16.3741987179487 18.6308548624239  16.2860576923077 18.7785129174543  C 16.1979166666667 18.9261709724848  16.0616987179487 19  15.8774038461538 19  C 15.7411858974359 19  15.5809294871795 18.9521109010712  15.3966346153846 18.8563327032136  L 10 16.0308758664146  L 4.60336538461538 18.8563327032136  C 4.41907051282051 18.9521109010712  4.2588141025641 19  4.12259615384615 19  C 3.93830128205128 19  3.80208333333333 18.9261709724848  3.71394230769231 18.7785129174543  C 3.62580128205128 18.6308548624239  3.60176282051282 18.4253308128544  3.64182692307692 18.1619407687461  L 4.67548076923077 12.1758034026465  L 0.300480769230769 7.93761814744802  C 0.0440705128205128 7.68220961982777  -0.0480769230769231 7.44475950430582  0.0240384615384615 7.22526780088217  C 0.0961538461538462 7.00577609745852  0.3125 6.86809493803823  0.673076923076923 6.8122243226213  L 6.70673076923077 5.93824826717076  L 9.41105769230769 0.490863264020163  C 9.5713141025641 0.16362108800672  9.76762820512821 0  10 0  C 10.224358974359 0  10.4206730769231 0.16362108800672  10.5889423076923 0.490863264020163  L 13.2932692307692 5.93824826717076  L 19.3269230769231 6.8122243226213  C 19.6875 6.86809493803823  19.9038461538462 7.00577609745852  19.9759615384615 7.22526780088217  Z " fill-rule="nonzero" fill="#000000" stroke="none" transform="matrix(1 0 0 1 1234 927 )" />
  </g>
</svg>