<?xml version="1.0" encoding="utf-8"?>
<svg version="1.1" xmlns:xlink="http://www.w3.org/1999/xlink" width="20px" height="19px" xmlns="http://www.w3.org/2000/svg">
  <g transform="matrix(1 0 0 1 -1271 -927 )">
    <path d="M 14.53125 16.6773787019534  L 13.6658653846154 11.6370510396975  L 17.34375 8.0812854442344  L 12.2716346153846 7.33900441083806  L 10 2.765595463138  L 7.72836538461538 7.33900441083806  L 2.65625 8.0812854442344  L 6.33413461538462 11.6370510396975  L 5.45673076923077 16.6773787019534  L 10 14.2948960302457  L 14.53125 16.6773787019534  Z M 19.3269230769231 6.8122243226213  C 19.775641025641 6.88405797101449  20 7.06763285024155  20 7.36294896030246  C 20 7.53854232304138  19.8958333333333 7.73009871875656  19.6875 7.93761814744802  L 15.3245192307692 12.1758034026465  L 16.3581730769231 18.1619407687461  C 16.3661858974359 18.217811384163  16.3701923076923 18.2976265490443  16.3701923076923 18.40138626339  C 16.3701923076923 18.8004620877967  16.2059294871795 19  15.8774038461538 19  C 15.7251602564103 19  15.5649038461538 18.9521109010712  15.3966346153846 18.8563327032136  L 10 16.0308758664146  L 4.60336538461538 18.8563327032136  C 4.42708333333333 18.9521109010712  4.26682692307692 19  4.12259615384615 19  C 3.95432692307692 19  3.828125 18.942134005461  3.74399038461538 18.8264020163831  C 3.65985576923077 18.7106700273052  3.61778846153846 18.5689981096408  3.61778846153846 18.40138626339  C 3.61778846153846 18.3534971644612  3.62580128205128 18.2736819995799  3.64182692307692 18.1619407687461  L 4.67548076923077 12.1758034026465  L 0.300480769230769 7.93761814744802  C 0.100160256410256 7.72211720226843  0 7.53056080655325  0 7.36294896030246  C 0 7.06763285024155  0.224358974358974 6.88405797101449  0.673076923076923 6.8122243226213  L 6.70673076923077 5.93824826717076  L 9.41105769230769 0.490863264020163  C 9.56330128205128 0.16362108800672  9.75961538461539 0  10 0  C 10.2403846153846 0  10.4366987179487 0.16362108800672  10.5889423076923 0.490863264020163  L 13.2932692307692 5.93824826717076  L 19.3269230769231 6.8122243226213  Z " fill-rule="nonzero" fill="#000000" stroke="none" transform="matrix(1 0 0 1 1271 927 )" />
  </g>
</svg>